<mxfile host="app.diagrams.net" modified="2024-07-16T08:50:44.905Z" agent="Mozilla/5.0 (Macintosh; Intel Mac OS X 10_15_7) AppleWebKit/537.36 (KHTML, like Gecko) Chrome/126.0.0.0 Safari/537.36" version="24.6.5" etag="3DCNRIrVA8e43GQLMXeT" type="github">
  <diagram name="Page-1" id="Z0KVy5UEq5Ap2xh9_oR2">
    <mxGraphModel>
      <root>
        <mxCell id="0" />
        <mxCell id="1" parent="0" />
      </root>
    </mxGraphModel>
  </diagram>
</mxfile>
